<svg width="0" height="0" class="hidden">
    <symbol fill="none" xmlns="http://www.w3.org/2000/svg" viewBox="0 0 586 290" id="logo">
        <path d="M292.65 0L261.65 101H156.65L239.65 169L210.65 260L292.65 201L376.65 260L346.65 167L429.65 102H325.65L292.65 0Z"
              fill="#FF2200"/>
        <path d="M577.16 141.92V137.92H574.16V113.92H560.16V123.92L556.16 134.92H552.16V141.92H508.16C499.16 141.92 491.16 124.92 491.16 124.92H451.16L439.16 121.92H363.16V117.92H349.16V115.92H347.16V118.92H318.16V114.92H315.16V124.92L174.16 125.92L154.16 148.92L117.16 157.92C117.16 157.92 104.16 161.92 100.16 156.92C96.1601 151.92 87.1601 153.92 87.1601 153.92C87.1601 153.92 11.1601 164.92 5.16009 165.92C-0.839912 166.92 1.16009 172.92 1.16009 172.92L9.16009 224.92C9.16009 224.92 11.1601 227.92 14.1601 228.92C17.1601 229.92 22.1601 227.92 22.1601 227.92L162.16 178.92L170.16 194.92L156.16 227.92C156.16 227.92 153.16 243.92 167.16 245.92C181.16 247.92 185.16 243.92 186.16 242.92C187.16 241.92 186.16 229.92 186.16 229.92L202.16 195.92C202.16 195.92 211.16 199.92 222.16 199.92C233.16 199.92 243.16 196.92 243.16 196.92V193.92H248.16V201.92H255.16V193.92C255.16 193.92 258.16 193.92 257.16 194.92C256.16 195.92 269.16 225.92 279.16 242.92C289.16 259.92 315.16 283.92 320.16 287.92C325.16 291.92 332.16 288.92 332.16 288.92C332.16 288.92 351.16 260.92 352.16 258.92C353.16 256.92 352.16 254.92 352.16 254.92C352.16 254.92 331.16 235.92 315.16 216.92C299.16 197.92 302.16 170.92 302.16 170.92H335.16C335.16 170.92 341.16 173.92 348.16 173.92C355.16 173.92 368.16 165.92 368.16 165.92H431.16V163.92H439.16L443.16 158.92H488.16V160.92H495.16V157.92H575.16V153.92H585.16V141.92H577.16ZM238.16 193.92C235.95 194.66 222.85 195.4 216.13 195.73C213.74 195.85 212.16 195.92 212.16 195.92C212.16 195.92 210.89 195.92 210.01 194.82C209.77 194.53 209.56 194.15 209.41 193.68C209.26 193.2 209.16 192.62 209.16 191.92V177.86L213.17 177.61C213.23 180.06 213.61 188.37 216.16 190.92C219.16 193.92 226.16 192.92 226.16 192.92V190.92C226.16 190.92 221.16 188.92 220.16 184.92C219.16 180.92 227.16 176.92 227.16 176.92V176.73L239.23 175.98L240.16 190.92C240.16 190.92 241.16 192.92 238.16 193.92ZM389.16 138.92H379.16V136.92H389.16V138.92ZM421.16 138.92H410.16V136.92H421.16V138.92ZM485.16 153.92H447.16V152.92H485.16V153.92ZM485.16 138.92H450.16V136.92H485.16V138.92ZM554.16 153.92H513.16V152.92H554.16V153.92ZM559.16 137.92C559.4 133.16 561.48 130.94 565.16 130.92C568.99 130.64 571.13 132.78 571.16 137.92H559.16Z"
              fill="currentColor"/>
    </symbol>
    <symbol fill="none" xmlns="http://www.w3.org/2000/svg" viewBox="0 0 1094 104" id="logo-text-desktop">
        <path d="M34.06 46.36V84.75H24.49V46.36H34.06ZM48.47 104C54.19 104 58.15 100.04 58.15 94.43V36.57C58.15 30.96 54.19 27 48.47 27H10.08C4.36 27 0.4 30.96 0.4 36.57V94.43C0.4 100.04 4.36 104 10.08 104H48.47ZM91.0916 46.36H100.662V60.77H91.0916V46.36ZM115.072 80.02C120.792 80.02 124.752 75.95 124.752 70.34V36.57C124.752 30.96 120.792 27 115.072 27H67.0016V104H91.0916V80.02H115.072ZM167.181 104L187.971 36.57V27H165.641L161.021 57.14H158.381L152.221 27H129.121V36.57L149.031 85.74L145.951 94.43V104H167.181ZM252.507 54.94H249.207V27H225.117V54.94H221.817L215.987 27H193.217V36.57L202.017 63.19L191.237 94.43V104H215.327L221.817 74.19H225.117V104H249.207V74.19H252.507L258.997 104H283.087V94.43L272.307 63.19L281.217 36.57V27H258.337L252.507 54.94ZM341.167 104V84.75H313.667V74.19H337.317V54.94H313.667V46.36H337.317L341.167 36.57V27H289.687V104H341.167ZM358.582 18.53H391.692L394.772 10.72V0.0499942H358.582V18.53ZM381.462 34.7L370.242 61.21H368.262L371.892 36.57V27H347.802V104H371.892V96.3L383.222 69.79H385.092L381.462 94.43V104H405.552V27H381.462V34.7ZM438.384 54.94V27H414.404V104H438.384V74.19H448.064V104H472.044V27H448.064V54.94H438.384ZM504.881 84.75V70.34H513.571V84.75H504.881ZM544.261 27V104H568.351V27H544.261ZM527.981 51.09H504.881V27H480.791V104H527.981C533.591 104 537.551 99.93 537.551 94.32V60.66C537.551 55.05 533.591 51.09 527.981 51.09ZM587.928 18.53H621.038L624.118 10.72V0.0499942H587.928V18.53ZM610.808 34.7L599.588 61.21H597.608L601.238 36.57V27H577.148V104H601.238V96.3L612.568 69.79H614.438L610.808 94.43V104H634.898V27H610.808V34.7ZM721.765 104V46.25H731.335V104H755.425V27H697.675V104H721.765ZM797.937 46.36V84.75H788.367V46.36H797.937ZM812.347 104C818.067 104 822.027 100.04 822.027 94.43V36.57C822.027 30.96 818.067 27 812.347 27H773.957C768.237 27 764.277 30.96 764.277 36.57V94.43C764.277 100.04 768.237 104 773.957 104H812.347ZM868.609 84.75H859.259L865.199 46.25H868.609V84.75ZM827.579 104H899.079V84.75H892.699V27H846.499L834.729 84.75H827.579V104ZM928.66 74.19H938.23V84.75H928.66V74.19ZM938.23 54.94H928.66V46.36H938.23V54.94ZM952.64 104C958.36 104 962.32 100.04 962.32 94.43V74.96C962.32 69.24 957.7 65.61 952.42 65.61V63.52C957.7 63.52 962.32 59.89 962.32 54.28V36.57C962.32 30.96 958.36 27 952.64 27H904.57V104H952.64ZM995.07 69.24L997.27 46.36H999.91L1002.11 69.24H995.07ZM978.57 27L967.79 94.43V104H991.77L993.31 88.49H1003.87L1005.3 104H1029.39V94.43L1018.61 27H978.57ZM1093.26 104V27H1047.17L1032.65 94.43V104H1056.85L1065.87 46.25H1069.28V104H1093.26Z"
              fill="white"/>
    </symbol>
    <symbol fill="none" xmlns="http://www.w3.org/2000/svg" viewBox="0 0 324 105" id="logo-text-mobile">
        <path d="M17.376 23.656V43.2H12.504V23.656H17.376ZM24.712 53C27.624 53 29.64 50.984 29.64 48.128V18.672C29.64 15.816 27.624 13.8 24.712 13.8H5.168C2.256 13.8 0.24 15.816 0.24 18.672V48.128C0.24 50.984 2.256 53 5.168 53H24.712ZM46.4103 23.656H51.2823V30.992H46.4103V23.656ZM58.6183 40.792C61.5303 40.792 63.5462 38.72 63.5462 35.864V18.672C63.5462 15.816 61.5303 13.8 58.6183 13.8H34.1463V53H46.4103V40.792H58.6183ZM85.1469 53L95.7309 18.672V13.8H84.3629L82.0109 29.144H80.6669L77.5309 13.8H65.7709V18.672L75.9069 43.704L74.3389 48.128V53H85.1469ZM128.585 28.024H126.905V13.8H114.641V28.024H112.961L109.993 13.8H98.4014V18.672L102.881 32.224L97.3934 48.128V53H109.657L112.961 37.824H114.641V53H126.905V37.824H128.585L131.889 53H144.153V48.128L138.665 32.224L143.201 18.672V13.8H131.553L128.585 28.024ZM173.721 53V43.2H159.721V37.824H171.761V28.024H159.721V23.656H171.761L173.721 18.672V13.8H147.513V53H173.721ZM182.587 9.488H199.443L201.011 5.512V0.0799971H182.587V9.488ZM194.235 17.72L188.523 31.216H187.515L189.363 18.672V13.8H177.099V53H189.363V49.08L195.131 35.584H196.083L194.235 48.128V53H206.499V13.8H194.235V17.72ZM223.214 28.024V13.8H211.006V53H223.214V37.824H228.142V53H240.35V13.8H228.142V28.024H223.214ZM257.067 43.2V35.864H261.491V43.2H257.067ZM277.115 13.8V53H289.379V13.8H277.115ZM268.827 26.064H257.067V13.8H244.803V53H268.827C271.683 53 273.699 50.928 273.699 48.072V30.936C273.699 28.08 271.683 26.064 268.827 26.064ZM299.345 9.488H316.201L317.769 5.512V0.0799971H299.345V9.488ZM310.993 17.72L305.281 31.216H304.273L306.121 18.672V13.8H293.857V53H306.121V49.08L311.889 35.584H312.841L310.993 48.128V53H323.257V13.8H310.993V17.72ZM12.504 105V75.6H17.376V105H29.64V65.8H0.24V105H12.504ZM51.2823 75.656V95.2H46.4103V75.656H51.2823ZM58.6183 105C61.5303 105 63.5462 102.984 63.5462 100.128V70.672C63.5462 67.816 61.5303 65.8 58.6183 65.8H39.0743C36.1623 65.8 34.1463 67.816 34.1463 70.672V100.128C34.1463 102.984 36.1623 105 39.0743 105H58.6183ZM87.2605 95.2H82.5005L85.5245 75.6H87.2605V95.2ZM66.3725 105H102.773V95.2H99.5245V65.8H76.0045L70.0125 95.2H66.3725V105ZM117.832 89.824H122.704V95.2H117.832V89.824ZM122.704 80.024H117.832V75.656H122.704V80.024ZM130.04 105C132.952 105 134.968 102.984 134.968 100.128V90.216C134.968 87.304 132.616 85.456 129.928 85.456V84.392C132.616 84.392 134.968 82.544 134.968 79.688V70.672C134.968 67.816 132.952 65.8 130.04 65.8H105.568V105H130.04ZM151.641 87.304L152.761 75.656H154.105L155.225 87.304H151.641ZM143.241 65.8L137.753 100.128V105H149.961L150.745 97.104H156.121L156.849 105H169.113V100.128L163.625 65.8H143.241ZM201.627 105V65.8H178.163L170.771 100.128V105H183.091L187.683 75.6H189.419V105H201.627Z"
              fill="white"/>
    </symbol>
    <symbol fill="none" xmlns="http://www.w3.org/2000/svg" viewBox="0 0 31 36" id="menu">
        <line x1="1.5" y1="1.5" x2="29.5" y2="1.5" stroke="white" stroke-width="3" stroke-linecap="round"/>
        <line x1="1.5" y1="17.1316" x2="29.5" y2="17.1316" stroke="white" stroke-width="3" stroke-linecap="round"/>
        <line x1="1.5" y1="34.5" x2="29.5" y2="34.5" stroke="white" stroke-width="3" stroke-linecap="round"/>
    </symbol>
    <symbol fill="none" xmlns="http://www.w3.org/2000/svg" viewBox="0 0 49 48" id="telegram">
        <path
                d="M44.2912 6.29058C43.5712 5.68002 42.4403 5.59266 41.271 6.0621H41.2691C40.0394 6.55554 6.45856 20.9594 5.09152 21.5479C4.84288 21.6343 2.67136 22.4445 2.89504 24.2493C3.09472 25.8765 4.84 26.5504 5.05312 26.6282L13.5904 29.5514C14.1568 31.4368 16.2448 38.393 16.7066 39.8791C16.9946 40.8055 17.464 42.0227 18.2867 42.2733C19.0086 42.5517 19.7267 42.2973 20.1914 41.9325L25.4109 37.0912L33.8368 43.6624L34.0374 43.7824C34.6096 44.0359 35.1578 44.1626 35.681 44.1626C36.0851 44.1626 36.473 44.0867 36.8435 43.9351C38.1059 43.4167 38.6109 42.2138 38.6637 42.0775L44.9574 9.36354C45.3414 7.61634 44.8077 6.72738 44.2912 6.29058ZM21.1197 30.7207L18.2397 38.4007L15.3597 28.8007L37.4397 12.4807L21.1197 30.7207Z"
                fill="currentColor"/>
    </symbol>
    <symbol xmlns="http://www.w3.org/2000/svg" viewBox="0 0 24 24" id="vk">
        <path fill="currentColor"
              d="M13.162 18.994c.609 0 .858-.406.851-.915-.031-1.917.714-2.949 2.059-1.604 1.488 1.488 1.796 2.519 3.603 2.519h3.2c.808 0 1.126-.26 1.126-.668 0-.863-1.421-2.386-2.625-3.504-1.686-1.565-1.765-1.602-.313-3.486 1.801-2.339 4.157-5.336 2.073-5.336h-3.981c-.772 0-.828.435-1.103 1.083-.995 2.347-2.886 5.387-3.604 4.922-.751-.485-.407-2.406-.35-5.261.015-.754.011-1.271-1.141-1.539-.629-.145-1.241-.205-1.809-.205-2.273 0-3.841.953-2.95 1.119 1.571.293 1.42 3.692 1.054 5.16-.638 2.556-3.036-2.024-4.035-4.305-.241-.548-.315-.974-1.175-.974h-3.255c-.492 0-.787.16-.787.516 0 .602 2.96 6.72 5.786 9.77 2.756 2.975 5.48 2.708 7.376 2.708z"/>
    </symbol>
    <symbol xmlns="http://www.w3.org/2000/svg" viewBox="0 0 24 24" id="instagram">
        <path fill="currentColor"
              d="M12 2.163c3.204 0 3.584.012 4.85.07 3.252.148 4.771 1.691 4.919 4.919.058 1.265.069 1.645.069 4.849 0 3.205-.012 3.584-.069 4.849-.149 3.225-1.664 4.771-4.919 4.919-1.266.058-1.644.07-4.85.07-3.204 0-3.584-.012-4.849-.07-3.26-.149-4.771-1.699-4.919-4.92-.058-1.265-.07-1.644-.07-4.849 0-3.204.013-3.583.07-4.849.149-3.227 1.664-4.771 4.919-4.919 1.266-.057 1.645-.069 4.849-.069zm0-2.163c-3.259 0-3.667.014-4.947.072-4.358.2-6.78 2.618-6.98 6.98-.059 1.281-.073 1.689-.073 4.948 0 3.259.014 3.668.072 4.948.2 4.358 2.618 6.78 6.98 6.98 1.281.058 1.689.072 4.948.072 3.259 0 3.668-.014 4.948-.072 4.354-.2 6.782-2.618 6.979-6.98.059-1.28.073-1.689.073-4.948 0-3.259-.014-3.667-.072-4.947-.196-4.354-2.617-6.78-6.979-6.98-1.281-.059-1.69-.073-4.949-.073zm0 5.838c-3.403 0-6.162 2.759-6.162 6.162s2.759 6.163 6.162 6.163 6.162-2.759 6.162-6.163c0-3.403-2.759-6.162-6.162-6.162zm0 10.162c-2.209 0-4-1.79-4-4 0-2.209 1.791-4 4-4s4 1.791 4 4c0 2.21-1.791 4-4 4zm6.406-11.845c-.796 0-1.441.645-1.441 1.44s.645 1.44 1.441 1.44c.795 0 1.439-.645 1.439-1.44s-.644-1.44-1.439-1.44z"/>
    </symbol>
    <symbol fill="none" xmlns="http://www.w3.org/2000/svg" viewBox="0 0 43 42" id="close">
        <line y1="-0.5" x2="58.6941" y2="-0.5" transform="matrix(0.715574 0.698537 -0.732581 0.68068 0 1)"
              stroke="black"/>
        <line y1="-0.5" x2="58.6895" y2="-0.5" transform="matrix(-0.714442 0.699695 -0.73368 -0.679495 41.9302 0)"
              stroke="black"/>
    </symbol>
    <symbol fill="none" xmlns="http://www.w3.org/2000/svg" viewBox="0 0 16 33" id="arrow-left">
        <path d="M16 33V0L0 17L16 33Z" fill="currentColor"/>
    </symbol>
    <symbol fill="none" xmlns="http://www.w3.org/2000/svg" viewBox="0 0 16 33" id="arrow-right">
        <path d="M5.74597e-06 -1.39876e-06L2.86102e-06 33L16 17L5.74597e-06 -1.39876e-06Z" fill="currentColor"/>
    </symbol>
</svg>
