<?xml version="1.0" standalone="no"?>
<!DOCTYPE svg PUBLIC "-//W3C//DTD SVG 20010904//EN"
 "http://www.w3.org/TR/2001/REC-SVG-20010904/DTD/svg10.dtd">
<svg version="1.0" xmlns="http://www.w3.org/2000/svg"
 width="700.000000pt" height="700.000000pt" viewBox="0 0 700.000000 700.000000"
 preserveAspectRatio="xMidYMid meet">
<metadata>
Created by potrace 1.14, written by Peter Selinger 2001-2017
</metadata>
<g transform="translate(0.000000,700.000000) scale(0.100000,-0.100000)"
fill="#000000" stroke="none">
<path d="M3465 6373 c-21 -70 -46 -150 -120 -388 -31 -99 -57 -187 -59 -195
-2 -8 -11 -37 -20 -65 -25 -79 -307 -995 -321 -1045 -80 -278 -161 -519 -174
-522 -9 -2 -541 -3 -1184 -3 -642 0 -1167 -2 -1167 -6 0 -4 11 -14 24 -22 13
-9 29 -22 37 -29 8 -7 37 -31 64 -53 28 -21 52 -42 55 -45 3 -3 91 -75 195
-159 105 -85 206 -168 226 -185 20 -17 44 -38 55 -46 34 -27 179 -145 184
-150 3 -3 28 -23 55 -46 144 -117 295 -241 335 -274 25 -21 126 -104 225 -184
99 -81 189 -155 200 -164 11 -10 64 -53 117 -95 86 -70 96 -81 88 -100 -5 -12
-34 -103 -65 -202 -59 -187 -155 -491 -230 -725 -24 -74 -76 -236 -115 -360
-39 -124 -75 -236 -80 -250 -5 -14 -36 -113 -70 -220 -34 -107 -68 -212 -76
-232 -7 -21 -10 -38 -6 -38 4 0 46 28 94 63 307 221 535 386 567 408 20 14
293 211 608 437 315 227 575 412 578 412 4 0 57 -35 118 -78 184 -128 401
-281 422 -296 11 -8 88 -62 170 -120 83 -58 157 -110 165 -116 8 -6 89 -63
180 -126 91 -63 174 -122 185 -130 144 -105 648 -454 651 -451 2 2 -11 50 -30
108 -19 57 -71 219 -116 359 -45 140 -90 280 -100 310 -10 30 -55 170 -100
310 -45 140 -92 287 -105 325 -13 39 -58 178 -100 310 -42 132 -85 265 -96
296 -10 30 -19 60 -19 66 0 5 150 127 333 269 182 142 334 261 337 264 3 3 25
21 50 40 25 19 50 39 57 45 14 11 15 12 103 81 255 198 360 280 390 304 19 16
162 128 318 249 155 122 282 223 282 224 0 1 -528 2 -1174 1 l-1173 0 -21 60
c-23 68 -203 625 -252 781 -18 55 -47 145 -65 200 -18 55 -56 170 -83 255 -61
188 -252 779 -294 908 -16 50 -31 92 -33 92 -2 0 -11 -26 -20 -57z"/>
</g>
</svg>
